<mxfile host="app.diagrams.net" modified="2024-01-02T16:06:22.135Z" agent="Mozilla/5.0 (Windows NT 10.0; Win64; x64) AppleWebKit/537.36 (KHTML, like Gecko) Chrome/120.0.0.0 Safari/537.36" etag="hNTIoZA3-z90GKKKCelX" version="22.1.16" type="device">
  <diagram name="PÃ¡gina-1" id="p8mPs3jGFhRLRuaFj05i">
    <mxGraphModel dx="1434" dy="772" grid="1" gridSize="10" guides="1" tooltips="1" connect="1" arrows="1" fold="1" page="1" pageScale="1" pageWidth="827" pageHeight="1169" math="0" shadow="0">
      <root>
        <mxCell id="0" />
        <mxCell id="1" parent="0" />
        <mxCell id="lpzqnN_FN1W3EfpmRadL-1" value="RUTA DE DATOS" style="rounded=0;whiteSpace=wrap;html=1;" vertex="1" parent="1">
          <mxGeometry x="160" y="160" width="400" height="120" as="geometry" />
        </mxCell>
        <mxCell id="lpzqnN_FN1W3EfpmRadL-2" value="CONTROLADOR" style="rounded=0;whiteSpace=wrap;html=1;" vertex="1" parent="1">
          <mxGeometry x="160" y="480" width="400" height="120" as="geometry" />
        </mxCell>
        <mxCell id="lpzqnN_FN1W3EfpmRadL-3" value="" style="endArrow=classic;html=1;rounded=0;entryX=0;entryY=0;entryDx=0;entryDy=0;" edge="1" parent="1">
          <mxGeometry width="50" height="50" relative="1" as="geometry">
            <mxPoint x="30" y="180" as="sourcePoint" />
            <mxPoint x="160" y="180" as="targetPoint" />
            <Array as="points">
              <mxPoint x="30" y="180" />
            </Array>
          </mxGeometry>
        </mxCell>
        <mxCell id="lpzqnN_FN1W3EfpmRadL-4" value="rst" style="edgeLabel;html=1;align=center;verticalAlign=middle;resizable=0;points=[];" vertex="1" connectable="0" parent="lpzqnN_FN1W3EfpmRadL-3">
          <mxGeometry x="0.0462" y="-1" relative="1" as="geometry">
            <mxPoint x="-8" y="-11" as="offset" />
          </mxGeometry>
        </mxCell>
        <mxCell id="lpzqnN_FN1W3EfpmRadL-5" value="" style="endArrow=classic;html=1;rounded=0;entryX=0;entryY=0.25;entryDx=0;entryDy=0;" edge="1" parent="1">
          <mxGeometry width="50" height="50" relative="1" as="geometry">
            <mxPoint x="30" y="219.5" as="sourcePoint" />
            <mxPoint x="160" y="219.5" as="targetPoint" />
            <Array as="points">
              <mxPoint x="100" y="219.5" />
            </Array>
          </mxGeometry>
        </mxCell>
        <mxCell id="lpzqnN_FN1W3EfpmRadL-6" value="clk" style="edgeLabel;html=1;align=center;verticalAlign=middle;resizable=0;points=[];" vertex="1" connectable="0" parent="lpzqnN_FN1W3EfpmRadL-5">
          <mxGeometry x="-0.0923" y="-1" relative="1" as="geometry">
            <mxPoint y="-11" as="offset" />
          </mxGeometry>
        </mxCell>
        <mxCell id="lpzqnN_FN1W3EfpmRadL-7" value="" style="endArrow=classic;html=1;rounded=0;entryX=0.09;entryY=1.025;entryDx=0;entryDy=0;entryPerimeter=0;exitX=0.09;exitY=-0.042;exitDx=0;exitDy=0;exitPerimeter=0;" edge="1" parent="1" source="lpzqnN_FN1W3EfpmRadL-2" target="lpzqnN_FN1W3EfpmRadL-1">
          <mxGeometry width="50" height="50" relative="1" as="geometry">
            <mxPoint x="390" y="420" as="sourcePoint" />
            <mxPoint x="440" y="370" as="targetPoint" />
          </mxGeometry>
        </mxCell>
        <mxCell id="lpzqnN_FN1W3EfpmRadL-8" value="enables" style="edgeLabel;html=1;align=center;verticalAlign=middle;resizable=0;points=[];" vertex="1" connectable="0" parent="lpzqnN_FN1W3EfpmRadL-7">
          <mxGeometry x="-0.0419" y="-1" relative="1" as="geometry">
            <mxPoint x="-27" y="-3" as="offset" />
          </mxGeometry>
        </mxCell>
        <mxCell id="lpzqnN_FN1W3EfpmRadL-9" value="" style="endArrow=classic;html=1;rounded=0;entryX=-0.002;entryY=0.383;entryDx=0;entryDy=0;entryPerimeter=0;" edge="1" parent="1">
          <mxGeometry width="50" height="50" relative="1" as="geometry">
            <mxPoint x="30.8" y="260.04" as="sourcePoint" />
            <mxPoint x="160.00000000000006" y="260.00000000000006" as="targetPoint" />
          </mxGeometry>
        </mxCell>
        <mxCell id="lpzqnN_FN1W3EfpmRadL-10" value="sw_dificultad" style="edgeLabel;html=1;align=center;verticalAlign=middle;resizable=0;points=[];" vertex="1" connectable="0" parent="lpzqnN_FN1W3EfpmRadL-9">
          <mxGeometry x="-0.0557" y="-3" relative="1" as="geometry">
            <mxPoint y="-9" as="offset" />
          </mxGeometry>
        </mxCell>
        <mxCell id="lpzqnN_FN1W3EfpmRadL-11" value="" style="endArrow=classic;html=1;rounded=0;exitX=1;exitY=0;exitDx=0;exitDy=0;" edge="1" parent="1">
          <mxGeometry width="50" height="50" relative="1" as="geometry">
            <mxPoint x="560" y="180" as="sourcePoint" />
            <mxPoint x="680" y="180" as="targetPoint" />
          </mxGeometry>
        </mxCell>
        <mxCell id="lpzqnN_FN1W3EfpmRadL-12" value="dificultad" style="edgeLabel;html=1;align=center;verticalAlign=middle;resizable=0;points=[];" vertex="1" connectable="0" parent="lpzqnN_FN1W3EfpmRadL-11">
          <mxGeometry x="0.1818" y="-4" relative="1" as="geometry">
            <mxPoint x="-11" y="-14" as="offset" />
          </mxGeometry>
        </mxCell>
        <mxCell id="lpzqnN_FN1W3EfpmRadL-13" value="" style="endArrow=classic;html=1;rounded=0;exitX=1;exitY=1;exitDx=0;exitDy=0;entryX=1;entryY=0;entryDx=0;entryDy=0;" edge="1" parent="1">
          <mxGeometry width="50" height="50" relative="1" as="geometry">
            <mxPoint x="520" y="280" as="sourcePoint" />
            <mxPoint x="520" y="480" as="targetPoint" />
            <Array as="points">
              <mxPoint x="520" y="400" />
            </Array>
          </mxGeometry>
        </mxCell>
        <mxCell id="lpzqnN_FN1W3EfpmRadL-14" value="contador2seg" style="edgeLabel;html=1;align=center;verticalAlign=middle;resizable=0;points=[];" vertex="1" connectable="0" parent="lpzqnN_FN1W3EfpmRadL-13">
          <mxGeometry x="-0.19" y="1" relative="1" as="geometry">
            <mxPoint x="39" y="19" as="offset" />
          </mxGeometry>
        </mxCell>
        <mxCell id="lpzqnN_FN1W3EfpmRadL-15" value="" style="endArrow=classic;html=1;rounded=0;exitX=0.808;exitY=1.017;exitDx=0;exitDy=0;exitPerimeter=0;" edge="1" parent="1" source="lpzqnN_FN1W3EfpmRadL-1">
          <mxGeometry width="50" height="50" relative="1" as="geometry">
            <mxPoint x="390" y="420" as="sourcePoint" />
            <mxPoint x="483" y="480" as="targetPoint" />
          </mxGeometry>
        </mxCell>
        <mxCell id="lpzqnN_FN1W3EfpmRadL-16" value="fallo" style="edgeLabel;html=1;align=center;verticalAlign=middle;resizable=0;points=[];" vertex="1" connectable="0" parent="lpzqnN_FN1W3EfpmRadL-15">
          <mxGeometry x="0.1896" relative="1" as="geometry">
            <mxPoint x="16" y="-18" as="offset" />
          </mxGeometry>
        </mxCell>
        <mxCell id="lpzqnN_FN1W3EfpmRadL-17" value="" style="endArrow=classic;html=1;rounded=0;exitX=0.708;exitY=1.042;exitDx=0;exitDy=0;exitPerimeter=0;entryX=0.708;entryY=-0.025;entryDx=0;entryDy=0;entryPerimeter=0;" edge="1" parent="1" source="lpzqnN_FN1W3EfpmRadL-1" target="lpzqnN_FN1W3EfpmRadL-2">
          <mxGeometry width="50" height="50" relative="1" as="geometry">
            <mxPoint x="390" y="420" as="sourcePoint" />
            <mxPoint x="440" y="370" as="targetPoint" />
          </mxGeometry>
        </mxCell>
        <mxCell id="lpzqnN_FN1W3EfpmRadL-18" value="puntuacion" style="edgeLabel;html=1;align=center;verticalAlign=middle;resizable=0;points=[];" vertex="1" connectable="0" parent="lpzqnN_FN1W3EfpmRadL-17">
          <mxGeometry x="0.1873" y="-1" relative="1" as="geometry">
            <mxPoint x="-28" y="-19" as="offset" />
          </mxGeometry>
        </mxCell>
        <mxCell id="lpzqnN_FN1W3EfpmRadL-19" value="" style="endArrow=classic;html=1;rounded=0;exitX=1;exitY=0.683;exitDx=0;exitDy=0;exitPerimeter=0;" edge="1" parent="1">
          <mxGeometry width="50" height="50" relative="1" as="geometry">
            <mxPoint x="560" y="261.96000000000004" as="sourcePoint" />
            <mxPoint x="680" y="260" as="targetPoint" />
          </mxGeometry>
        </mxCell>
        <mxCell id="lpzqnN_FN1W3EfpmRadL-21" value="leds" style="edgeLabel;html=1;align=center;verticalAlign=middle;resizable=0;points=[];" vertex="1" connectable="0" parent="lpzqnN_FN1W3EfpmRadL-19">
          <mxGeometry x="0.1494" y="-2" relative="1" as="geometry">
            <mxPoint x="-9" y="-13" as="offset" />
          </mxGeometry>
        </mxCell>
        <mxCell id="lpzqnN_FN1W3EfpmRadL-22" value="" style="endArrow=classic;html=1;rounded=0;entryX=-0.005;entryY=0.117;entryDx=0;entryDy=0;entryPerimeter=0;" edge="1" parent="1">
          <mxGeometry width="50" height="50" relative="1" as="geometry">
            <mxPoint x="42" y="480" as="sourcePoint" />
            <mxPoint x="160" y="480.03999999999996" as="targetPoint" />
          </mxGeometry>
        </mxCell>
        <mxCell id="lpzqnN_FN1W3EfpmRadL-27" value="rst" style="edgeLabel;html=1;align=center;verticalAlign=middle;resizable=0;points=[];" vertex="1" connectable="0" parent="lpzqnN_FN1W3EfpmRadL-22">
          <mxGeometry x="-0.2373" y="-2" relative="1" as="geometry">
            <mxPoint x="13" y="-12" as="offset" />
          </mxGeometry>
        </mxCell>
        <mxCell id="lpzqnN_FN1W3EfpmRadL-23" value="" style="endArrow=classic;html=1;rounded=0;entryX=0;entryY=0.5;entryDx=0;entryDy=0;" edge="1" parent="1">
          <mxGeometry width="50" height="50" relative="1" as="geometry">
            <mxPoint x="40" y="560" as="sourcePoint" />
            <mxPoint x="160" y="560" as="targetPoint" />
          </mxGeometry>
        </mxCell>
        <mxCell id="lpzqnN_FN1W3EfpmRadL-28" value="jugar" style="edgeLabel;html=1;align=center;verticalAlign=middle;resizable=0;points=[];" vertex="1" connectable="0" parent="lpzqnN_FN1W3EfpmRadL-23">
          <mxGeometry x="-0.15" y="-1" relative="1" as="geometry">
            <mxPoint x="9" y="-11" as="offset" />
          </mxGeometry>
        </mxCell>
        <mxCell id="lpzqnN_FN1W3EfpmRadL-24" value="" style="endArrow=classic;html=1;rounded=0;entryX=0;entryY=0.75;entryDx=0;entryDy=0;" edge="1" parent="1">
          <mxGeometry width="50" height="50" relative="1" as="geometry">
            <mxPoint x="40" y="599" as="sourcePoint" />
            <mxPoint x="160" y="599" as="targetPoint" />
            <Array as="points">
              <mxPoint x="90" y="599" />
            </Array>
          </mxGeometry>
        </mxCell>
        <mxCell id="lpzqnN_FN1W3EfpmRadL-29" value="inicio" style="edgeLabel;html=1;align=center;verticalAlign=middle;resizable=0;points=[];" vertex="1" connectable="0" parent="lpzqnN_FN1W3EfpmRadL-24">
          <mxGeometry x="0.1333" relative="1" as="geometry">
            <mxPoint x="-8" y="-14" as="offset" />
          </mxGeometry>
        </mxCell>
        <mxCell id="lpzqnN_FN1W3EfpmRadL-25" value="" style="endArrow=classic;html=1;rounded=0;entryX=-0.005;entryY=0.308;entryDx=0;entryDy=0;entryPerimeter=0;" edge="1" parent="1">
          <mxGeometry width="50" height="50" relative="1" as="geometry">
            <mxPoint x="42" y="520.04" as="sourcePoint" />
            <mxPoint x="160" y="520" as="targetPoint" />
          </mxGeometry>
        </mxCell>
        <mxCell id="lpzqnN_FN1W3EfpmRadL-26" value="clk" style="edgeLabel;html=1;align=center;verticalAlign=middle;resizable=0;points=[];" vertex="1" connectable="0" parent="lpzqnN_FN1W3EfpmRadL-25">
          <mxGeometry x="-0.1525" relative="1" as="geometry">
            <mxPoint x="8" y="-10" as="offset" />
          </mxGeometry>
        </mxCell>
      </root>
    </mxGraphModel>
  </diagram>
</mxfile>
